<svg width="27" height="27" viewBox="0 0 27 27" fill="none" xmlns="http://www.w3.org/2000/svg">
<path d="M9.5625 21.375H9C4.5 21.375 2.25 20.25 2.25 14.625V9C2.25 4.5 4.5 2.25 9 2.25H18C22.5 2.25 24.75 4.5 24.75 9V14.625C24.75 19.125 22.5 21.375 18 21.375H17.4375C17.0887 21.375 16.7512 21.5437 16.5375 21.825L14.85 24.075C14.1075 25.065 12.8925 25.065 12.15 24.075L10.4625 21.825C10.2825 21.5775 9.86625 21.375 9.5625 21.375Z" stroke="black" stroke-width="1.5" stroke-miterlimit="10" stroke-linecap="round" stroke-linejoin="round"/>
<path d="M17.9958 12.375H18.0059" stroke="black" stroke-width="2" stroke-linecap="round" stroke-linejoin="round"/>
<path d="M13.4948 12.375H13.5049" stroke="black" stroke-width="2" stroke-linecap="round" stroke-linejoin="round"/>
<path d="M8.99382 12.375H9.00393" stroke="black" stroke-width="2" stroke-linecap="round" stroke-linejoin="round"/>
</svg>
