<svg width="27" height="27" viewBox="0 0 27 27" fill="none" xmlns="http://www.w3.org/2000/svg">
<path d="M10.3049 12.2287C10.1924 12.2175 10.0574 12.2175 9.93363 12.2287C7.25613 12.1387 5.12988 9.945 5.12988 7.245C5.12988 4.48875 7.35738 2.25 10.1249 2.25C12.8811 2.25 15.1199 4.48875 15.1199 7.245C15.1086 9.945 12.9824 12.1387 10.3049 12.2287Z" stroke="black" stroke-width="1.5" stroke-linecap="round" stroke-linejoin="round"/>
<path d="M18.4612 4.5C20.6437 4.5 22.3987 6.26625 22.3987 8.4375C22.3987 10.5637 20.7112 12.2962 18.6074 12.375C18.5174 12.3638 18.4162 12.3638 18.3149 12.375" stroke="black" stroke-width="1.5" stroke-linecap="round" stroke-linejoin="round"/>
<path d="M4.68006 16.38C1.95756 18.2025 1.95756 21.1725 4.68006 22.9837C7.77381 25.0537 12.8476 25.0537 15.9413 22.9837C18.6638 21.1612 18.6638 18.1912 15.9413 16.38C12.8588 14.3213 7.78506 14.3213 4.68006 16.38Z" stroke="black" stroke-width="1.5" stroke-linecap="round" stroke-linejoin="round"/>
<path d="M20.6323 22.5C21.4423 22.3313 22.2073 22.005 22.8373 21.5212C24.5923 20.205 24.5923 18.0337 22.8373 16.7175C22.2186 16.245 21.4648 15.93 20.6661 15.75" stroke="black" stroke-width="1.5" stroke-linecap="round" stroke-linejoin="round"/>
</svg>
